<svg width="59" height="60" viewBox="0 0 59 60" fill="none" xmlns="http://www.w3.org/2000/svg">
<path d="M49.1633 15.9668H9.82026C8.53814 15.9668 7.49878 17.0062 7.49878 18.2883V18.5326C7.49878 19.8148 8.53814 20.8541 9.82026 20.8541H49.1633C50.4454 20.8541 51.4848 19.8148 51.4848 18.5326V18.2883C51.4848 17.0062 50.4454 15.9668 49.1633 15.9668Z" fill="white"/>
<path d="M49.1633 27.854H9.82026C8.53814 27.854 7.49878 28.8934 7.49878 30.1755V30.4199C7.49878 31.702 8.53814 32.7413 9.82026 32.7413H49.1633C50.4454 32.7413 51.4848 31.702 51.4848 30.4199V30.1755C51.4848 28.8934 50.4454 27.854 49.1633 27.854Z" fill="white"/>
<path d="M49.1633 39.7417H9.82026C8.53814 39.7417 7.49878 40.7811 7.49878 42.0632V42.3075C7.49878 43.5897 8.53814 44.629 9.82026 44.629H49.1633C50.4454 44.629 51.4848 43.5897 51.4848 42.3075V42.0632C51.4848 40.7811 50.4454 39.7417 49.1633 39.7417Z" fill="white"/>
</svg>
