<svg width="188" height="41" viewBox="0 0 188 41" fill="none" xmlns="http://www.w3.org/2000/svg">
<line x1="48.1645" y1="33.2286" x2="66.9645" y2="33.2393" stroke="#FF5000" stroke-width="0.969072" stroke-linecap="round"/>
<path d="M80.2406 33.2482C80.2406 33.0843 80.2001 32.922 80.1216 32.771C80.043 32.62 79.928 32.4833 79.7834 32.3691C79.6387 32.2549 79.4673 32.1655 79.2794 32.1061C79.0915 32.0467 78.8908 32.0186 78.6893 32.0235L75.104 32.1091L72.4903 27.713C72.2807 27.3597 71.8395 27.1345 71.3567 27.1345C71.2577 27.1345 71.1597 27.1516 71.0693 27.1847C70.979 27.2178 70.8983 27.2661 70.8326 27.3264C70.7668 27.3867 70.7176 27.4576 70.6881 27.5346C70.6586 27.6115 70.6494 27.6927 70.6613 27.7727L71.3136 32.1995L68.4646 32.2672L68.0938 31.4419C68.0251 31.2891 67.9004 31.1572 67.7365 31.064C67.5726 30.9707 67.3774 30.9207 67.1774 30.9206C67.0878 30.9206 66.9991 30.935 66.9163 30.9629C66.8335 30.9908 66.7584 31.0317 66.695 31.0833C66.6317 31.1348 66.5815 31.196 66.5473 31.2634C66.5131 31.3307 66.4955 31.4029 66.4956 31.4758V32.3842L65.8827 32.4882C65.668 32.5245 65.4753 32.6199 65.3369 32.7583C65.1986 32.8967 65.123 33.0696 65.123 33.2479C65.123 33.4263 65.1986 33.5992 65.3369 33.7375C65.4753 33.8759 65.668 33.9713 65.8827 34.0077L66.4956 34.1111V35.0207C66.4956 35.3038 66.7552 35.5364 67.0919 35.5709L67.1774 35.5752C67.3772 35.5751 67.5721 35.5251 67.7359 35.4319C67.8996 35.3388 68.0243 35.2071 68.093 35.0545L68.4653 34.2299L71.3038 34.2976L70.6613 38.6573C70.6596 38.6686 70.6584 38.6799 70.6575 38.6912L70.656 38.725C70.656 39.0395 70.9701 39.2949 71.3567 39.2949C71.7994 39.2949 72.2065 39.106 72.4335 38.8026L72.4903 38.7164L75.0654 34.3868L78.6901 34.473C79.0894 34.4824 79.4771 34.3624 79.7677 34.1395C80.0583 33.9165 80.2281 33.6087 80.2398 33.2839L80.2406 33.2482Z" fill="#FF5000"/>
<path d="M56.0735 21V10.1855H58.5372L58.7771 11.6464C59.1259 11.1231 59.5838 10.7088 60.1507 10.4036C60.7321 10.0838 61.4007 9.9239 62.1566 9.9239C63.8282 9.9239 65.0128 10.5707 65.7105 11.8644C66.103 11.2684 66.6263 10.796 67.2804 10.4472C67.949 10.0983 68.6758 9.9239 69.4607 9.9239C70.8707 9.9239 71.9536 10.3454 72.7094 11.1885C73.4653 12.0316 73.8432 13.2671 73.8432 14.8951V21H71.0524V15.1567C71.0524 14.2264 70.8707 13.5142 70.5073 13.02C70.1584 12.5258 69.6133 12.2787 68.872 12.2787C68.1162 12.2787 67.5057 12.5548 67.0405 13.1072C66.5899 13.6595 66.3646 14.4299 66.3646 15.4183V21H63.5738V15.1567C63.5738 14.2264 63.3921 13.5142 63.0287 13.02C62.6653 12.5258 62.1057 12.2787 61.3499 12.2787C60.6086 12.2787 60.0053 12.5548 59.5402 13.1072C59.0896 13.6595 58.8643 14.4299 58.8643 15.4183V21H56.0735ZM77.4826 25.7967L79.99 20.2805H79.3359L75.1279 10.1855H78.1585L81.1892 17.7949L84.3507 10.1855H87.3159L80.4479 25.7967H77.4826ZM93.0778 21.2616C92.1185 21.2616 91.2754 21.109 90.5486 20.8038C89.8219 20.484 89.2404 20.0479 88.8044 19.4956C88.3683 18.9432 88.1067 18.3037 88.0194 17.5769H90.8321C90.9193 17.9984 91.1519 18.3618 91.5298 18.667C91.9222 18.9578 92.4237 19.1031 93.0342 19.1031C93.6447 19.1031 94.088 18.9796 94.3642 18.7325C94.6549 18.4853 94.8003 18.2019 94.8003 17.8821C94.8003 17.417 94.5968 17.1045 94.1898 16.9446C93.7828 16.7702 93.2159 16.603 92.4891 16.4431C92.024 16.3414 91.5516 16.2178 91.0719 16.0724C90.5922 15.9271 90.1489 15.7454 89.7419 15.5274C89.3495 15.2948 89.0297 15.0041 88.7826 14.6552C88.5355 14.2918 88.4119 13.8485 88.4119 13.3252C88.4119 12.3659 88.7898 11.5592 89.5457 10.9051C90.3161 10.251 91.3917 9.9239 92.7726 9.9239C94.0517 9.9239 95.0692 10.2219 95.825 10.8178C96.5954 11.4138 97.0533 12.2351 97.1987 13.2816H94.5605C94.4006 12.4822 93.7973 12.0824 92.7508 12.0824C92.2275 12.0824 91.8205 12.1842 91.5298 12.3877C91.2536 12.5912 91.1155 12.8456 91.1155 13.1508C91.1155 13.4706 91.3263 13.725 91.7478 13.9139C92.1694 14.1029 92.729 14.2773 93.4267 14.4372C94.1825 14.6116 94.873 14.8079 95.498 15.0259C96.1376 15.2294 96.6463 15.5419 97.0242 15.9634C97.4022 16.3704 97.5911 16.9591 97.5911 17.7295C97.6057 18.3981 97.4312 19.0014 97.0678 19.5392C96.7044 20.077 96.1812 20.4985 95.498 20.8038C94.8148 21.109 94.0081 21.2616 93.0778 21.2616ZM101.568 8.50669C101.059 8.50669 100.638 8.35406 100.303 8.04882C99.9835 7.74357 99.8236 7.35838 99.8236 6.89324C99.8236 6.4281 99.9835 6.05018 100.303 5.75946C100.638 5.45422 101.059 5.3016 101.568 5.3016C102.077 5.3016 102.491 5.45422 102.811 5.75946C103.145 6.05018 103.312 6.4281 103.312 6.89324C103.312 7.35838 103.145 7.74357 102.811 8.04882C102.491 8.35406 102.077 8.50669 101.568 8.50669ZM100.172 21V10.1855H102.963V21H100.172ZM105.876 21V10.1855H108.34L108.58 11.6464C108.929 11.1231 109.387 10.7088 109.953 10.4036C110.535 10.0838 111.203 9.9239 111.959 9.9239C113.631 9.9239 114.816 10.5707 115.513 11.8644C115.906 11.2684 116.429 10.796 117.083 10.4472C117.752 10.0983 118.479 9.9239 119.263 9.9239C120.673 9.9239 121.756 10.3454 122.512 11.1885C123.268 12.0316 123.646 13.2671 123.646 14.8951V21H120.855V15.1567C120.855 14.2264 120.673 13.5142 120.31 13.02C119.961 12.5258 119.416 12.2787 118.675 12.2787C117.919 12.2787 117.308 12.5548 116.843 13.1072C116.393 13.6595 116.167 14.4299 116.167 15.4183V21H113.377V15.1567C113.377 14.2264 113.195 13.5142 112.831 13.02C112.468 12.5258 111.908 12.2787 111.153 12.2787C110.411 12.2787 109.808 12.5548 109.343 13.1072C108.892 13.6595 108.667 14.4299 108.667 15.4183V21H105.876ZM131.114 21C129.98 21 129.072 20.7238 128.389 20.1715C127.706 19.6191 127.364 18.638 127.364 17.228V12.5185H125.511V10.1855H127.364L127.691 7.2857H130.155V10.1855H133.076V12.5185H130.155V17.2498C130.155 17.7731 130.264 18.1365 130.482 18.34C130.714 18.529 131.107 18.6234 131.659 18.6234H133.011V21H131.114ZM135.473 21V10.1855H137.958L138.22 12.2133C138.612 11.5155 139.143 10.9632 139.811 10.5562C140.495 10.1347 141.294 9.9239 142.21 9.9239V12.8674H141.425C140.814 12.8674 140.269 12.9618 139.79 13.1508C139.31 13.3398 138.932 13.6668 138.656 14.1319C138.394 14.5971 138.263 15.2439 138.263 16.0724V21H135.473ZM147.846 21.2616C146.915 21.2616 146.152 21.1163 145.556 20.8256C144.96 20.5203 144.517 20.1206 144.226 19.6264C143.936 19.1322 143.79 18.5871 143.79 17.9911C143.79 16.9882 144.183 16.1742 144.968 15.5492C145.752 14.9241 146.93 14.6116 148.5 14.6116H151.247V14.35C151.247 13.6087 151.036 13.0636 150.615 12.7147C150.193 12.3659 149.67 12.1915 149.045 12.1915C148.478 12.1915 147.984 12.3295 147.562 12.6057C147.141 12.8674 146.879 13.2598 146.777 13.7831H144.052C144.124 12.9982 144.386 12.315 144.837 11.7336C145.302 11.1522 145.898 10.7088 146.625 10.4036C147.351 10.0838 148.165 9.9239 149.067 9.9239C150.607 9.9239 151.821 10.3091 152.708 11.0795C153.594 11.8499 154.038 12.94 154.038 14.35V21H151.661L151.4 19.2557C151.08 19.8372 150.629 20.3168 150.048 20.6948C149.481 21.0727 148.747 21.2616 147.846 21.2616ZM148.478 19.0813C149.277 19.0813 149.895 18.8197 150.331 18.2964C150.782 17.7731 151.065 17.1263 151.182 16.3559H148.805C148.064 16.3559 147.533 16.494 147.213 16.7702C146.894 17.0318 146.734 17.3588 146.734 17.7513C146.734 18.1728 146.894 18.4999 147.213 18.7325C147.533 18.965 147.955 19.0813 148.478 19.0813ZM159.303 21L155.335 10.1855H158.257L161.004 18.3618L163.751 10.1855H166.673L162.683 21H159.303ZM173.155 21.2616C172.065 21.2616 171.099 21.0291 170.256 20.5639C169.412 20.0988 168.751 19.4447 168.271 18.6016C167.792 17.7586 167.552 16.7847 167.552 15.68C167.552 14.5607 167.784 13.5651 168.25 12.6929C168.729 11.8208 169.383 11.1449 170.212 10.6652C171.055 10.171 172.043 9.9239 173.177 9.9239C174.238 9.9239 175.176 10.1565 175.99 10.6216C176.804 11.0867 177.436 11.7263 177.887 12.5403C178.352 13.3398 178.584 14.2337 178.584 15.2221C178.584 15.382 178.577 15.5492 178.563 15.7236C178.563 15.898 178.555 16.0797 178.541 16.2687H170.321C170.379 17.1117 170.67 17.7731 171.193 18.2528C171.731 18.7325 172.378 18.9723 173.134 18.9723C173.7 18.9723 174.173 18.8487 174.551 18.6016C174.943 18.34 175.234 18.0057 175.423 17.5987H178.257C178.054 18.2819 177.712 18.9069 177.233 19.4738C176.767 20.0261 176.186 20.4622 175.488 20.782C174.805 21.1017 174.027 21.2616 173.155 21.2616ZM173.177 12.1915C172.494 12.1915 171.891 12.3877 171.367 12.7801C170.844 13.1581 170.51 13.7395 170.365 14.5244H175.75C175.706 13.8122 175.445 13.2453 174.965 12.8237C174.485 12.4022 173.889 12.1915 173.177 12.1915ZM180.932 21V5.3016H183.722V21H180.932Z" fill="#FF5000"/>
<path d="M85.0933 37.9217C84.379 37.9217 83.7514 37.7657 83.2105 37.4536C82.6765 37.1346 82.2569 36.6908 81.9518 36.1221C81.6536 35.5535 81.5045 34.8981 81.5045 34.1561C81.5045 33.4141 81.6536 32.7622 81.9518 32.2005C82.2569 31.6319 82.6765 31.188 83.2105 30.869C83.7514 30.55 84.379 30.3905 85.0933 30.3905C85.8145 30.3905 86.4421 30.55 86.9761 30.869C87.517 31.188 87.9365 31.6319 88.2347 32.2005C88.5329 32.7622 88.682 33.4141 88.682 34.1561C88.682 34.8981 88.5329 35.5535 88.2347 36.1221C87.9365 36.6908 87.517 37.1346 86.9761 37.4536C86.4421 37.7657 85.8145 37.9217 85.0933 37.9217ZM85.0933 37.1519C85.6272 37.1519 86.0953 37.0341 86.4976 36.7983C86.9067 36.5556 87.2222 36.2123 87.4442 35.7685C87.673 35.3177 87.7874 34.7803 87.7874 34.1561C87.7874 33.532 87.673 32.998 87.4442 32.5542C87.2222 32.1104 86.9067 31.7706 86.4976 31.5348C86.0953 31.2921 85.6272 31.1707 85.0933 31.1707C84.5593 31.1707 84.0877 31.2921 83.6786 31.5348C83.2764 31.7706 82.9608 32.1104 82.732 32.5542C82.5101 32.998 82.3991 33.532 82.3991 34.1561C82.3991 34.7803 82.5101 35.3177 82.732 35.7685C82.9608 36.2123 83.2764 36.5556 83.6786 36.7983C84.0877 37.0341 84.5593 37.1519 85.0933 37.1519ZM92.6434 37.7969V32.6374H93.434L93.4964 33.3864C93.6628 33.109 93.8848 32.894 94.1622 32.7414C94.4395 32.5889 94.7516 32.5126 95.0983 32.5126C95.5075 32.5126 95.8577 32.5958 96.149 32.7622C96.4472 32.9287 96.676 33.1818 96.8355 33.5216C97.0158 33.2095 97.262 32.9633 97.5741 32.783C97.8931 32.6027 98.2363 32.5126 98.6039 32.5126C99.2211 32.5126 99.7134 32.6998 100.081 33.0743C100.449 33.4418 100.632 34.0105 100.632 34.7803V37.7969H99.7689V34.8739C99.7689 34.3399 99.6614 33.9377 99.4464 33.6672C99.2315 33.3968 98.9229 33.2615 98.5207 33.2615C98.1046 33.2615 97.7578 33.4245 97.4804 33.7504C97.21 34.0694 97.0748 34.5271 97.0748 35.1235V37.7969H96.201V34.8739C96.201 34.3399 96.0935 33.9377 95.8785 33.6672C95.6635 33.3968 95.3549 33.2615 94.9527 33.2615C94.5436 33.2615 94.2003 33.4245 93.9229 33.7504C93.6524 34.0694 93.5172 34.5271 93.5172 35.1235V37.7969H92.6434ZM103.831 37.9217C103.221 37.9217 102.736 37.7379 102.375 37.3704C102.014 36.9959 101.834 36.4238 101.834 35.654V32.6374H102.708V35.5604C102.708 36.6353 103.148 37.1727 104.029 37.1727C104.48 37.1727 104.851 37.0132 105.142 36.6942C105.44 36.3683 105.589 35.9072 105.589 35.3108V32.6374H106.463V37.7969H105.672L105.61 36.8711C105.451 37.197 105.211 37.4536 104.892 37.6408C104.58 37.8281 104.227 37.9217 103.831 37.9217ZM107.901 37.7969V32.6374H108.692L108.744 33.5632C108.91 33.2373 109.15 32.9807 109.462 32.7934C109.774 32.6062 110.127 32.5126 110.523 32.5126C111.133 32.5126 111.618 32.6998 111.979 33.0743C112.346 33.4418 112.53 34.0105 112.53 34.7803V37.7969H111.656V34.8739C111.656 33.799 111.213 33.2615 110.325 33.2615C109.881 33.2615 109.51 33.4245 109.212 33.7504C108.921 34.0694 108.775 34.5271 108.775 35.1235V37.7969H107.901ZM116.195 37.9217C115.681 37.9217 115.231 37.8038 114.842 37.568C114.461 37.3322 114.163 37.0098 113.948 36.6006C113.74 36.1915 113.636 35.7268 113.636 35.2067C113.636 34.6866 113.743 34.2255 113.958 33.8233C114.173 33.4141 114.471 33.0951 114.853 32.8663C115.234 32.6305 115.685 32.5126 116.205 32.5126C116.628 32.5126 117.002 32.5993 117.328 32.7726C117.654 32.946 117.907 33.1887 118.088 33.5008V30.3073H118.962V37.7969H118.171L118.088 36.9439C117.921 37.1936 117.682 37.4189 117.37 37.62C117.058 37.8211 116.666 37.9217 116.195 37.9217ZM116.288 37.1623C116.635 37.1623 116.94 37.0826 117.204 36.9231C117.474 36.7567 117.682 36.5278 117.828 36.2366C117.98 35.9453 118.057 35.6055 118.057 35.2171C118.057 34.8288 117.98 34.489 117.828 34.1977C117.682 33.9065 117.474 33.6811 117.204 33.5216C116.94 33.3552 116.635 33.2719 116.288 33.2719C115.948 33.2719 115.643 33.3552 115.373 33.5216C115.109 33.6811 114.901 33.9065 114.749 34.1977C114.603 34.489 114.53 34.8288 114.53 35.2171C114.53 35.6055 114.603 35.9453 114.749 36.2366C114.901 36.5278 115.109 36.7567 115.373 36.9231C115.643 37.0826 115.948 37.1623 116.288 37.1623ZM122.737 37.9217C122.251 37.9217 121.814 37.8107 121.426 37.5888C121.038 37.3669 120.729 37.0549 120.5 36.6526C120.278 36.2435 120.167 35.765 120.167 35.2171C120.167 34.6693 120.282 34.1943 120.511 33.792C120.74 33.3829 121.048 33.0674 121.437 32.8455C121.832 32.6235 122.272 32.5126 122.758 32.5126C123.243 32.5126 123.68 32.6235 124.068 32.8455C124.457 33.0674 124.762 33.3829 124.984 33.792C125.212 34.1943 125.327 34.6693 125.327 35.2171C125.327 35.765 125.212 36.2435 124.984 36.6526C124.755 37.0549 124.443 37.3669 124.047 37.5888C123.659 37.8107 123.222 37.9217 122.737 37.9217ZM122.737 37.1727C123.035 37.1727 123.312 37.0999 123.569 36.9543C123.826 36.8087 124.034 36.5902 124.193 36.299C124.353 36.0077 124.432 35.6471 124.432 35.2171C124.432 34.7872 124.353 34.4266 124.193 34.1353C124.041 33.8441 123.836 33.6256 123.579 33.48C123.323 33.3344 123.049 33.2615 122.758 33.2615C122.459 33.2615 122.182 33.3344 121.925 33.48C121.669 33.6256 121.461 33.8441 121.301 34.1353C121.142 34.4266 121.062 34.7872 121.062 35.2171C121.062 35.6471 121.142 36.0077 121.301 36.299C121.461 36.5902 121.665 36.8087 121.915 36.9543C122.172 37.0999 122.446 37.1727 122.737 37.1727ZM129.295 37.7969V32.6374H130.085L130.137 33.5632C130.304 33.2373 130.543 32.9807 130.855 32.7934C131.167 32.6062 131.521 32.5126 131.916 32.5126C132.526 32.5126 133.012 32.6998 133.372 33.0743C133.74 33.4418 133.924 34.0105 133.924 34.7803V37.7969H133.05V34.8739C133.05 33.799 132.606 33.2615 131.718 33.2615C131.275 33.2615 130.904 33.4245 130.605 33.7504C130.314 34.0694 130.169 34.5271 130.169 35.1235V37.7969H129.295ZM137.598 37.9217C137.113 37.9217 136.676 37.8107 136.288 37.5888C135.899 37.3669 135.591 37.0549 135.362 36.6526C135.14 36.2435 135.029 35.765 135.029 35.2171C135.029 34.6693 135.144 34.1943 135.372 33.792C135.601 33.3829 135.91 33.0674 136.298 32.8455C136.693 32.6235 137.134 32.5126 137.619 32.5126C138.105 32.5126 138.542 32.6235 138.93 32.8455C139.318 33.0674 139.623 33.3829 139.845 33.792C140.074 34.1943 140.189 34.6693 140.189 35.2171C140.189 35.765 140.074 36.2435 139.845 36.6526C139.616 37.0549 139.304 37.3669 138.909 37.5888C138.521 37.8107 138.084 37.9217 137.598 37.9217ZM137.598 37.1727C137.897 37.1727 138.174 37.0999 138.431 36.9543C138.687 36.8087 138.895 36.5902 139.055 36.299C139.214 36.0077 139.294 35.6471 139.294 35.2171C139.294 34.7872 139.214 34.4266 139.055 34.1353C138.902 33.8441 138.698 33.6256 138.441 33.48C138.184 33.3344 137.91 33.2615 137.619 33.2615C137.321 33.2615 137.044 33.3344 136.787 33.48C136.53 33.6256 136.322 33.8441 136.163 34.1353C136.003 34.4266 135.924 34.7872 135.924 35.2171C135.924 35.6471 136.003 36.0077 136.163 36.299C136.322 36.5902 136.527 36.8087 136.777 36.9543C137.033 37.0999 137.307 37.1727 137.598 37.1727ZM146.133 37.9217C145.516 37.9217 145.002 37.7657 144.593 37.4536C144.184 37.1415 143.945 36.7185 143.876 36.1845H144.77C144.826 36.455 144.968 36.6908 145.197 36.8919C145.432 37.0861 145.748 37.1831 146.143 37.1831C146.511 37.1831 146.781 37.1069 146.955 36.9543C147.128 36.7948 147.215 36.6076 147.215 36.3926C147.215 36.0805 147.1 35.8725 146.871 35.7685C146.649 35.6644 146.334 35.5708 145.925 35.4876C145.647 35.4321 145.37 35.3524 145.093 35.2483C144.815 35.1443 144.583 34.9987 144.396 34.8115C144.208 34.6173 144.115 34.3642 144.115 34.0521C144.115 33.6013 144.281 33.2338 144.614 32.9495C144.954 32.6582 145.412 32.5126 145.987 32.5126C146.535 32.5126 146.982 32.6513 147.329 32.9287C147.683 33.1991 147.887 33.5875 147.943 34.0937H147.079C147.045 33.8302 146.93 33.6256 146.736 33.48C146.549 33.3274 146.296 33.2511 145.977 33.2511C145.665 33.2511 145.422 33.317 145.249 33.4488C145.082 33.5805 144.999 33.7539 144.999 33.9689C144.999 34.1769 145.106 34.3399 145.321 34.4578C145.543 34.5757 145.842 34.6762 146.216 34.7594C146.535 34.8288 146.837 34.9155 147.121 35.0195C147.412 35.1166 147.648 35.2657 147.828 35.4668C148.016 35.661 148.109 35.9453 148.109 36.3198C148.116 36.7844 147.939 37.1693 147.579 37.4744C147.225 37.7726 146.743 37.9217 146.133 37.9217ZM151.677 37.9217C151.185 37.9217 150.748 37.8107 150.366 37.5888C149.985 37.36 149.683 37.0445 149.462 36.6422C149.247 36.24 149.139 35.765 149.139 35.2171C149.139 34.6762 149.247 34.2047 149.462 33.8025C149.676 33.3933 149.975 33.0778 150.356 32.8559C150.744 32.627 151.192 32.5126 151.698 32.5126C152.197 32.5126 152.627 32.627 152.988 32.8559C153.355 33.0778 153.636 33.3725 153.83 33.74C154.025 34.1076 154.122 34.5029 154.122 34.9259C154.122 35.0022 154.118 35.0784 154.111 35.1547C154.111 35.231 154.111 35.3177 154.111 35.4148H150.002C150.023 35.8101 150.113 36.1395 150.273 36.403C150.439 36.6596 150.644 36.8537 150.887 36.9855C151.136 37.1173 151.4 37.1831 151.677 37.1831C152.038 37.1831 152.339 37.0999 152.582 36.9335C152.825 36.7671 153.002 36.5417 153.113 36.2574H153.976C153.837 36.7359 153.57 37.1346 153.175 37.4536C152.787 37.7657 152.287 37.9217 151.677 37.9217ZM151.677 33.2511C151.261 33.2511 150.89 33.3794 150.564 33.636C150.245 33.8857 150.061 34.2532 150.013 34.7386H153.258C153.237 34.274 153.078 33.9099 152.78 33.6464C152.482 33.3829 152.114 33.2511 151.677 33.2511ZM157.163 37.9217C156.552 37.9217 156.067 37.7379 155.706 37.3704C155.346 36.9959 155.165 36.4238 155.165 35.654V32.6374H156.039V35.5604C156.039 36.6353 156.48 37.1727 157.36 37.1727C157.811 37.1727 158.182 37.0132 158.473 36.6942C158.771 36.3683 158.921 35.9072 158.921 35.3108V32.6374H159.794V37.7969H159.004L158.941 36.8711C158.782 37.197 158.543 37.4536 158.224 37.6408C157.912 37.8281 157.558 37.9217 157.163 37.9217ZM166.357 37.9217C165.865 37.9217 165.421 37.8107 165.026 37.5888C164.637 37.36 164.329 37.0445 164.1 36.6422C163.878 36.2331 163.767 35.7581 163.767 35.2171C163.767 34.6762 163.878 34.2047 164.1 33.8025C164.329 33.3933 164.637 33.0778 165.026 32.8559C165.421 32.627 165.865 32.5126 166.357 32.5126C166.967 32.5126 167.481 32.6721 167.897 32.9911C168.32 33.3101 168.587 33.7366 168.698 34.2705H167.803C167.734 33.9515 167.564 33.7054 167.293 33.532C167.023 33.3517 166.707 33.2615 166.347 33.2615C166.056 33.2615 165.782 33.3344 165.525 33.48C165.268 33.6256 165.06 33.8441 164.901 34.1353C164.741 34.4266 164.662 34.7872 164.662 35.2171C164.662 35.6471 164.741 36.0077 164.901 36.299C165.06 36.5902 165.268 36.8121 165.525 36.9647C165.782 37.1103 166.056 37.1831 166.347 37.1831C166.707 37.1831 167.023 37.0965 167.293 36.9231C167.564 36.7428 167.734 36.4897 167.803 36.1637H168.698C168.594 36.6838 168.33 37.1069 167.907 37.4328C167.484 37.7587 166.967 37.9217 166.357 37.9217ZM169.918 37.7969V30.3073H170.792V33.5216C170.965 33.2026 171.211 32.9564 171.53 32.783C171.849 32.6027 172.196 32.5126 172.571 32.5126C173.167 32.5126 173.645 32.6998 174.006 33.0743C174.367 33.4418 174.547 34.0105 174.547 34.7803V37.7969H173.684V34.8739C173.684 33.799 173.25 33.2615 172.383 33.2615C171.933 33.2615 171.555 33.4245 171.249 33.7504C170.944 34.0694 170.792 34.5271 170.792 35.1235V37.7969H169.918ZM176.401 31.4932C176.228 31.4932 176.082 31.4377 175.964 31.3267C175.853 31.2088 175.798 31.0632 175.798 30.8898C175.798 30.7234 175.853 30.5847 175.964 30.4738C176.082 30.3628 176.228 30.3073 176.401 30.3073C176.568 30.3073 176.71 30.3628 176.828 30.4738C176.946 30.5847 177.005 30.7234 177.005 30.8898C177.005 31.0632 176.946 31.2088 176.828 31.3267C176.71 31.4377 176.568 31.4932 176.401 31.4932ZM175.964 37.7969V32.6374H176.838V37.7969H175.964ZM178.36 40.0853V32.6374H179.15L179.233 33.4904C179.4 33.2407 179.636 33.0154 179.941 32.8142C180.253 32.6131 180.648 32.5126 181.127 32.5126C181.64 32.5126 182.087 32.6305 182.468 32.8663C182.85 33.102 183.145 33.4245 183.353 33.8337C183.568 34.2428 183.675 34.7074 183.675 35.2275C183.675 35.7477 183.568 36.2123 183.353 36.6214C183.145 37.0236 182.846 37.3426 182.458 37.5784C182.077 37.8073 181.629 37.9217 181.116 37.9217C180.693 37.9217 180.315 37.835 179.982 37.6616C179.656 37.4883 179.407 37.2456 179.233 36.9335V40.0853H178.36ZM181.023 37.1623C181.369 37.1623 181.674 37.0826 181.938 36.9231C182.201 36.7567 182.409 36.5278 182.562 36.2366C182.715 35.9453 182.791 35.6055 182.791 35.2171C182.791 34.8288 182.715 34.489 182.562 34.1977C182.409 33.9065 182.201 33.6811 181.938 33.5216C181.674 33.3552 181.369 33.2719 181.023 33.2719C180.676 33.2719 180.371 33.3552 180.107 33.5216C179.844 33.6811 179.636 33.9065 179.483 34.1977C179.33 34.489 179.254 34.8288 179.254 35.2171C179.254 35.6055 179.33 35.9453 179.483 36.2366C179.636 36.5278 179.844 36.7567 180.107 36.9231C180.371 37.0826 180.676 37.1623 181.023 37.1623Z" fill="#FF5000"/>
<path fill-rule="evenodd" clip-rule="evenodd" d="M46.784 38.9563H5.75133C5.49432 38.9563 5.24783 38.8542 5.06609 38.6725L0.283835 33.8902C0.102099 33.7085 0 33.462 0 33.205V10.9962C0 10.461 0.433868 10.0271 0.969072 10.0271H15.477C16.0122 10.0271 16.4461 9.59321 16.4461 9.05801V4.45735C16.4461 3.92215 16.8799 3.48828 17.4151 3.48828H30.7342C31.2694 3.48828 31.7033 3.92215 31.7033 4.45735V9.05801C31.7033 9.59321 32.1371 10.0271 32.6724 10.0271H46.784C47.3192 10.0271 47.7531 10.461 47.7531 10.9962V37.9873C47.7531 38.5225 47.3192 38.9563 46.784 38.9563ZM19.418 8.64002V7.45115C19.418 7.01342 19.7728 6.65857 20.2106 6.65857H27.3438C27.7815 6.65857 28.1364 7.01342 28.1364 7.45115V8.64003C28.1364 9.07776 27.7815 9.43261 27.3438 9.43261H20.2106C19.7728 9.43261 19.418 9.07775 19.418 8.64002Z" fill="#FF5000"/>
<path d="M42.3889 18.8999V21.4104V24.4795V27.5767V29.799C42.3889 30.2394 42.0319 30.5963 41.5916 30.5963H35.113H28.2029C27.7626 30.5963 27.4057 30.2394 27.4057 29.799V27.5783V24.4795V21.2523V18.8999C27.4057 18.4596 27.7626 18.1026 28.2029 18.1026H34.8973H41.5916C42.0319 18.1026 42.3889 18.4596 42.3889 18.8999Z" fill="#FBDA82"/>
<path d="M42.3889 18.8999V21.4104V24.4795V27.5767V29.799C42.3889 30.2394 42.0319 30.5963 41.5916 30.5963H35.113H28.2029C27.7626 30.5963 27.4057 30.2394 27.4057 29.799V27.5783V24.4795V21.2523V18.8999C27.4057 18.4596 27.7626 18.1026 28.2029 18.1026H34.8973H41.5916C42.0319 18.1026 42.3889 18.4596 42.3889 18.8999Z" stroke="#494949" stroke-width="0.155052"/>
<path d="M42.3889 18.8999V21.4104V24.4795V27.5767V29.799C42.3889 30.2394 42.0319 30.5963 41.5916 30.5963H35.113H28.2029C27.7626 30.5963 27.4057 30.2394 27.4057 29.799V27.5783V24.4795V21.2523V18.8999C27.4057 18.4596 27.7626 18.1026 28.2029 18.1026H34.8973H41.5916C42.0319 18.1026 42.3889 18.4596 42.3889 18.8999Z" stroke="url(#paint0_radial_1795_1933)" stroke-opacity="0.2" stroke-width="0.155052"/>
<path d="M42.3889 18.8979V21.4084V24.4776V27.5747V29.7971C42.3889 30.2374 42.0319 30.5943 41.5916 30.5943H35.113H28.2029C27.7626 30.5943 27.4057 30.2374 27.4057 29.7971V27.5764V24.4776V21.2504V18.8979C27.4057 18.4576 27.7626 18.1007 28.2029 18.1007H34.8973H41.5916C42.0319 18.1007 42.3889 18.4576 42.3889 18.8979Z" stroke="#494949" stroke-width="0.155052"/>
<path d="M42.3889 18.8979V21.4084V24.4776V27.5747V29.7971C42.3889 30.2374 42.0319 30.5943 41.5916 30.5943H35.113H28.2029C27.7626 30.5943 27.4057 30.2374 27.4057 29.7971V27.5764V24.4776V21.2504V18.8979C27.4057 18.4576 27.7626 18.1007 28.2029 18.1007H34.8973H41.5916C42.0319 18.1007 42.3889 18.4576 42.3889 18.8979Z" stroke="url(#paint1_radial_1795_1933)" stroke-opacity="0.2" stroke-width="0.155052"/>
<defs>
<radialGradient id="paint0_radial_1795_1933" cx="0" cy="0" r="1" gradientUnits="userSpaceOnUse" gradientTransform="translate(27.3281 18.6179) rotate(45.3165) scale(18.9687 15.8492)">
<stop stop-opacity="0"/>
<stop offset="1" stop-color="white" stop-opacity="0.62"/>
</radialGradient>
<radialGradient id="paint1_radial_1795_1933" cx="0" cy="0" r="1" gradientUnits="userSpaceOnUse" gradientTransform="translate(27.3281 18.616) rotate(45.3165) scale(18.9687 15.8492)">
<stop stop-opacity="0"/>
<stop offset="1" stop-color="white" stop-opacity="0.62"/>
</radialGradient>
</defs>
</svg>
